<?xml version="1.0" standalone="no"?>
<!DOCTYPE svg PUBLIC "-//W3C//DTD SVG 20010904//EN"
 "http://www.w3.org/TR/2001/REC-SVG-20010904/DTD/svg10.dtd">
<svg version="1.0" xmlns="http://www.w3.org/2000/svg"
 width="512.000000pt" height="512.000000pt" viewBox="0 0 512.000000 512.000000"
 preserveAspectRatio="xMidYMid meet">

<g transform="translate(0.000000,512.000000) scale(0.100000,-0.100000)"
fill="#000000" stroke="none">
<path fill='#06283d' d="M1796 4784 c-168 -41 -316 -174 -378 -339 -20 -54 -23 -82 -26 -277
l-3 -217 -517 -3 -517 -3 -57 -27 c-75 -35 -141 -104 -167 -174 -20 -53 -21
-74 -21 -543 0 -540 -1 -531 65 -621 l35 -47 2 -979 c3 -926 4 -982 22 -1027
25 -66 104 -149 168 -178 l53 -24 2105 0 2105 0 53 24 c64 29 143 112 168 178
18 45 19 101 22 1027 l2 979 36 48 c66 90 65 81 62 635 l-3 499 -24 49 c-33
66 -91 122 -160 155 l-56 26 -517 3 -517 3 -3 217 c-3 194 -6 223 -25 275 -58
154 -178 273 -334 329 l-64 23 -725 2 c-600 1 -735 -1 -784 -13z m1517 -218
c66 -25 149 -104 178 -168 22 -49 24 -68 27 -250 l4 -198 -106 0 -106 0 0 160
c0 173 -9 214 -51 244 -21 14 -91 16 -699 16 -608 0 -678 -2 -699 -16 -42 -30
-51 -71 -51 -244 l0 -160 -106 0 -106 0 4 198 c3 181 5 201 26 247 25 54 78
115 128 145 77 48 94 49 824 47 639 -2 688 -3 733 -21z m-223 -511 l0 -105
-530 0 -530 0 0 105 0 105 530 0 530 0 0 -105z m1653 -336 c57 -26 57 -27 57
-519 0 -404 -2 -455 -17 -480 -26 -45 -50 -50 -237 -50 l-174 0 -4 89 c-3 80
-6 94 -33 133 -17 23 -51 54 -75 68 -40 22 -59 25 -175 29 -175 4 -224 -7
-285 -68 -52 -52 -70 -102 -70 -195 l0 -56 -1170 0 -1170 0 0 56 c0 131 -56
221 -157 250 -84 24 -313 16 -368 -13 -84 -44 -115 -104 -115 -218 l0 -75
-175 0 c-188 0 -212 5 -238 50 -15 25 -17 76 -17 480 0 404 2 455 17 480 9 16
26 33 37 39 30 14 4337 15 4369 0z m-3573 -1159 l0 -210 -105 0 -105 0 0 210
0 210 105 0 105 0 0 -210z m2990 0 l0 -210 -105 0 -105 0 0 210 0 210 105 0
105 0 0 -210z m-3410 -185 c0 -114 32 -174 115 -218 56 -29 284 -37 368 -13
101 29 157 119 157 250 l0 56 1170 0 1170 0 0 -56 c0 -93 18 -143 70 -195 61
-61 111 -73 286 -67 114 3 134 7 174 28 24 14 58 45 75 68 27 39 30 53 33 133
l4 89 159 0 159 0 0 -923 c0 -1024 5 -954 -66 -983 -50 -21 -4078 -21 -4128 0
-71 29 -66 -41 -66 983 l0 923 160 0 160 0 0 -75z"/>
</g>
</svg>
