<?xml version="1.0" standalone="no"?>
<!DOCTYPE svg PUBLIC "-//W3C//DTD SVG 20010904//EN"
 "http://www.w3.org/TR/2001/REC-SVG-20010904/DTD/svg10.dtd">
<svg version="1.0" xmlns="http://www.w3.org/2000/svg"
 width="512.000000pt" height="512.000000pt" viewBox="0 0 512.000000 512.000000"
 preserveAspectRatio="xMidYMid meet">

<g transform="translate(0.000000,512.000000) scale(0.100000,-0.100000)"
fill="#000000" stroke="none">
<path d="M1493 4708 c-12 -6 -25 -18 -29 -27 -22 -54 -160 -588 -156 -604 4
-16 51 -58 170 -154 l23 -18 -34 -45 c-62 -81 -72 -147 -34 -222 l23 -45 -32
-22 c-160 -110 -329 -310 -428 -509 -122 -243 -170 -573 -122 -842 56 -314
226 -612 464 -812 80 -69 224 -164 281 -188 31 -12 31 -12 31 -91 l0 -79 -244
0 -245 0 -20 -26 c-19 -24 -21 -40 -21 -150 l0 -124 -194 0 c-107 0 -206 -4
-219 -9 -37 -14 -47 -59 -47 -216 0 -159 9 -198 48 -214 19 -8 451 -11 1540
-9 l1514 3 19 24 c17 21 19 41 19 201 l0 179 -26 20 c-25 20 -39 21 -230 21
l-204 0 0 134 c0 128 -1 136 -22 150 -19 13 -61 16 -260 16 l-238 0 0 78 0 77
79 44 c230 127 450 353 557 573 l28 57 384 3 384 3 19 24 c17 21 19 41 19 195
0 167 -1 173 -23 194 l-23 22 -736 0 c-709 0 -737 -1 -759 -19 -23 -18 -24
-26 -29 -187 -6 -205 -10 -211 -91 -142 -77 65 -128 95 -213 123 -186 62 -378
31 -534 -86 l-54 -41 -34 33 c-87 84 -155 228 -175 372 -40 287 132 584 403
693 49 21 62 22 77 12 74 -53 289 -232 286 -238 -2 -4 -20 -30 -39 -58 -66
-98 -68 -216 -5 -313 79 -123 240 -163 370 -93 48 26 99 86 517 609 255 319
473 600 485 625 27 61 28 159 0 220 -48 108 -125 161 -242 168 -64 4 -86 1
-129 -18 -53 -23 -119 -86 -183 -176 -18 -24 -36 -44 -40 -44 -5 0 -210 160
-455 357 -246 196 -466 367 -488 379 -72 42 -166 26 -232 -37 l-32 -31 -168
135 c-210 166 -208 166 -251 145z m204 -287 c68 -55 124 -103 124 -106 1 -17
-227 -295 -239 -290 -28 11 -121 91 -121 105 -1 8 22 97 49 198 28 101 50 185
50 187 0 13 22 -2 137 -94z m865 -402 c249 -199 457 -365 461 -369 10 -9 -531
-685 -547 -684 -13 1 -893 701 -915 727 -7 9 -11 27 -7 39 3 13 118 164 256
336 207 258 254 312 275 312 18 0 157 -105 477 -361z m959 -174 c68 -36 91
-140 46 -206 -52 -76 -896 -1125 -914 -1135 -58 -35 -130 -24 -178 26 -38 39
-46 115 -18 162 24 41 883 1117 909 1139 10 9 26 19 34 22 30 11 92 7 121 -8z
m-1759 -497 c157 -125 187 -153 174 -162 -8 -6 -44 -27 -78 -46 -87 -48 -222
-186 -275 -280 -159 -283 -143 -616 42 -875 24 -33 59 -75 78 -94 l36 -34 -21
-40 c-49 -97 -60 -148 -67 -303 l-6 -151 -67 41 c-455 281 -678 839 -543 1359
69 267 239 520 460 685 39 28 72 52 74 52 2 0 89 -68 193 -152z m2388 -1248
l0 -80 -645 0 -645 0 0 80 0 80 645 0 645 0 0 -80z m-1817 -125 c183 -48 309
-186 337 -370 6 -39 9 -175 8 -310 l-3 -240 -442 -3 -443 -2 0 273 c0 352 13
408 123 524 112 118 271 167 420 128z m986 -117 c-70 -133 -266 -346 -395
-431 -109 -72 -100 -78 -106 80 -5 113 -11 153 -32 217 l-27 80 43 37 43 38
243 1 243 0 -12 -22z m-119 -1028 l0 -80 -970 0 -970 0 0 80 0 80 970 0 970 0
0 -80z m460 -305 l0 -85 -1427 2 -1428 3 -3 69 c-2 38 -1 75 2 83 5 11 244 13
1431 13 l1425 0 0 -85z"/>
<path d="M2111 1759 c-102 -54 -160 -156 -148 -261 33 -273 390 -340 511 -96
52 103 26 242 -58 315 -56 50 -95 66 -171 71 -64 4 -75 1 -134 -29z m216 -153
c100 -109 -37 -274 -163 -197 -32 20 -64 74 -64 110 0 39 28 90 62 111 52 33
122 23 165 -24z"/>
</g>
</svg>
