<?xml version="1.0" standalone="no"?>
<!DOCTYPE svg PUBLIC "-//W3C//DTD SVG 20010904//EN"
 "http://www.w3.org/TR/2001/REC-SVG-20010904/DTD/svg10.dtd">
<svg version="1.0" xmlns="http://www.w3.org/2000/svg"
 width="512.000000pt" height="512.000000pt" viewBox="0 0 512.000000 512.000000"
 preserveAspectRatio="xMidYMid meet">

<g transform="translate(0.000000,512.000000) scale(0.100000,-0.100000)"
fill="#000000" stroke="none">
<path d="M2415 5004 c-225 -32 -372 -76 -536 -160 -311 -159 -584 -455 -713
-774 -86 -211 -119 -386 -120 -630 0 -323 61 -619 204 -984 155 -394 413 -843
719 -1248 61 -82 105 -148 98 -148 -6 0 -73 -7 -147 -15 -476 -53 -830 -160
-972 -293 -63 -59 -81 -94 -81 -158 0 -58 20 -98 75 -151 278 -267 1363 -405
2303 -292 467 56 800 162 935 298 71 70 88 122 65 198 -56 190 -495 347 -1137
408 l-67 6 111 147 c639 849 982 1733 919 2372 -42 423 -192 736 -488 1021
-205 196 -473 334 -750 384 -85 16 -356 28 -418 19z m445 -128 c272 -63 470
-170 669 -361 221 -211 361 -470 423 -780 29 -145 31 -434 5 -600 -117 -723
-577 -1566 -1274 -2337 -63 -70 -118 -128 -122 -128 -16 0 -269 286 -407 460
-543 684 -891 1388 -991 2005 -26 166 -24 455 5 600 49 247 135 435 287 630
196 252 458 424 765 501 142 36 209 43 380 39 119 -3 180 -10 260 -29z m-594
-4036 c60 -69 144 -162 188 -207 108 -114 106 -114 244 35 61 64 145 158 187
207 l77 90 51 -3 c95 -6 320 -33 437 -53 376 -64 654 -179 699 -288 35 -84
-106 -185 -370 -265 -193 -58 -424 -98 -744 -128 -180 -17 -775 -17 -950 0
-625 60 -1032 183 -1111 335 -62 119 236 267 696 346 123 21 454 60 481 57 3
-1 54 -57 115 -126z"/>
<path d="M2441 4370 c-216 -30 -430 -151 -568 -320 -67 -81 -147 -240 -174
-345 -30 -113 -30 -317 0 -430 48 -182 164 -362 307 -475 328 -261 781 -260
1111 2 138 110 257 295 304 473 30 114 30 317 0 430 -39 147 -121 294 -225
403 -100 106 -271 204 -418 241 -92 24 -248 33 -337 21z m224 -100 c359 -51
630 -329 676 -692 25 -192 -41 -426 -162 -570 l-26 -32 -21 40 c-86 168 -263
300 -454 338 -97 20 -139 20 -236 0 -188 -38 -370 -173 -452 -334 l-23 -44
-29 34 c-117 139 -184 376 -159 568 19 153 67 269 159 391 170 223 451 340
727 301z m-2 -1015 c97 -20 192 -70 267 -141 64 -61 140 -172 140 -205 0 -40
-159 -134 -295 -175 -77 -22 -109 -26 -215 -26 -106 0 -138 4 -215 26 -136 41
-295 135 -295 175 0 33 76 144 140 205 74 69 169 121 263 141 81 18 128 18
210 0z"/>
<path d="M2463 4082 c-150 -49 -243 -184 -231 -337 10 -116 77 -217 183 -273
44 -24 61 -27 145 -27 84 0 101 3 145 27 223 118 248 417 48 562 -86 62 -192
80 -290 48z m170 -96 c59 -22 107 -64 133 -120 41 -87 28 -179 -34 -248 -48
-53 -102 -78 -172 -78 -167 0 -277 170 -209 320 24 53 53 86 94 107 66 35 126
41 188 19z"/>
</g>
</svg>
