<?xml version="1.0" standalone="no"?>
<!DOCTYPE svg PUBLIC "-//W3C//DTD SVG 20010904//EN"
 "http://www.w3.org/TR/2001/REC-SVG-20010904/DTD/svg10.dtd">
<svg version="1.0" xmlns="http://www.w3.org/2000/svg"
 width="512.000000pt" height="512.000000pt" viewBox="0 0 512.000000 512.000000"
 preserveAspectRatio="xMidYMid meet">

<g transform="translate(0.000000,512.000000) scale(0.100000,-0.100000)"
fill="#000000" stroke="none">
<path d="M1925 4794 c-444 -148 -615 -210 -627 -225 -10 -12 -18 -33 -18 -48
0 -56 17 -65 295 -158 l265 -88 0 -254 c0 -164 4 -267 12 -292 16 -55 73 -118
132 -145 l51 -24 525 0 525 0 51 24 c59 27 116 90 132 145 8 25 12 128 12 292
l0 254 200 67 200 66 0 -199 c0 -199 0 -200 25 -224 15 -16 36 -25 55 -25 19
0 40 9 55 25 l25 24 0 269 c0 242 -2 272 -17 291 -13 16 -182 76 -633 226
-338 113 -624 205 -635 204 -11 0 -294 -92 -630 -205z m990 -78 l340 -114
-363 -1 -363 -1 -24 -25 c-33 -32 -33 -78 0 -110 l24 -25 363 -1 363 -1 -347
-116 -348 -117 -465 155 c-256 85 -465 157 -465 160 0 7 900 308 925 309 11 1
173 -50 360 -113z m-622 -592 l267 -89 268 89 c147 49 273 91 280 94 9 3 12
-45 12 -222 l0 -227 -25 -24 -24 -25 -511 0 -511 0 -24 25 -25 24 0 227 c0
177 3 225 13 222 6 -3 132 -45 280 -94z"/>
<path d="M4271 3625 c-71 -16 -188 -68 -253 -113 -24 -16 -59 -33 -78 -37 -97
-21 -186 -90 -230 -180 l-25 -50 -3 -391 c-2 -321 0 -404 12 -465 30 -144 125
-293 242 -377 l64 -47 0 -81 0 -82 -122 -4 c-117 -4 -126 -6 -186 -38 -70 -37
-100 -68 -140 -144 -26 -50 -27 -55 -30 -268 l-4 -217 26 -26 25 -25 751 0
751 0 25 25 26 26 -4 217 c-3 213 -4 218 -30 268 -40 76 -70 107 -140 144 -60
32 -69 34 -185 38 l-123 4 0 84 c0 76 2 84 23 95 80 42 194 174 241 280 l24
54 11 -40 c6 -22 14 -74 18 -115 5 -59 11 -79 29 -97 31 -31 78 -30 110 2 l25
25 -3 483 -3 482 -26 77 c-41 120 -93 204 -183 294 -136 136 -286 203 -471
210 -65 2 -122 -1 -164 -11z m235 -156 c162 -29 321 -151 394 -303 51 -108 60
-164 60 -394 l0 -194 -69 65 c-81 76 -172 130 -279 165 -66 21 -103 26 -253
31 -174 6 -176 6 -213 35 -61 46 -66 70 -66 290 l0 195 28 19 c121 86 257 117
398 91z m-591 -506 c-6 -33 -49 -93 -66 -93 -13 0 -11 312 2 347 5 15 22 41
37 56 l27 28 3 -153 c2 -84 0 -167 -3 -185z m119 -207 c82 -62 108 -69 301
-77 193 -7 232 -15 335 -70 30 -17 73 -45 94 -63 l39 -34 -11 -67 c-34 -205
-200 -368 -405 -398 -240 -34 -470 121 -532 358 -9 36 -15 103 -15 171 l0 111
41 18 c22 10 57 31 77 47 20 15 39 28 41 28 2 0 18 -11 35 -24z m286 -871 c47
0 102 3 123 7 l37 7 0 -74 c0 -41 -4 -76 -10 -80 -5 -3 -36 8 -69 25 -33 16
-70 30 -81 30 -11 0 -48 -14 -81 -30 -33 -17 -64 -28 -69 -25 -6 4 -10 39 -10
80 l0 74 38 -7 c20 -4 75 -7 122 -7z m-208 -445 l86 -200 -259 0 -259 0 0 134
c0 141 7 175 43 215 38 40 74 50 193 51 l111 0 85 -200z m752 186 c18 -8 46
-31 62 -52 29 -37 29 -40 32 -186 l3 -148 -260 0 -260 0 35 83 c19 45 58 135
86 200 l51 117 109 0 c70 0 120 -5 142 -14z m-501 -17 c23 -12 44 -23 46 -25
5 -5 -82 -214 -89 -214 -7 0 -94 209 -89 214 5 4 82 45 87 46 1 0 22 -10 45
-21z"/>
<path d="M615 3544 c-89 -19 -215 -80 -284 -137 -156 -131 -251 -330 -251
-532 0 -57 3 -69 25 -90 13 -14 31 -25 40 -25 13 0 15 -22 15 -152 0 -96 6
-179 15 -223 30 -141 126 -290 241 -373 l64 -47 0 -81 0 -82 -122 -4 c-117 -4
-126 -6 -186 -38 -70 -37 -100 -68 -140 -144 -26 -50 -27 -55 -30 -268 l-4
-217 26 -26 25 -25 751 0 751 0 25 25 26 26 -4 217 c-3 213 -4 218 -30 268
-40 76 -70 107 -140 144 -60 32 -69 34 -185 38 l-123 4 0 84 c0 83 0 84 31
100 46 24 159 142 197 206 18 31 45 89 60 130 l27 73 0 305 0 305 -27 80 c-96
280 -332 459 -623 471 -67 2 -123 -1 -170 -12z m264 -159 c63 -15 151 -57 200
-94 l25 -19 -59 -120 -58 -121 -108 -40 c-201 -75 -253 -85 -451 -85 -97 -1
-179 2 -183 6 -4 4 0 39 9 79 64 282 345 460 625 394z m385 -378 l7 -28 -38
25 c-21 14 -43 26 -50 26 -18 0 -16 15 9 63 l21 42 23 -50 c12 -27 25 -63 28
-78z m-117 -138 c24 -11 63 -44 88 -72 l45 -52 0 -131 c0 -72 -5 -155 -10
-185 -37 -195 -205 -353 -403 -382 -240 -34 -470 121 -532 358 -10 39 -15 105
-15 196 l0 136 148 6 c190 7 244 18 492 106 63 23 121 41 129 41 8 0 34 -9 58
-21z m-347 -984 c47 0 102 3 123 7 l37 7 0 -74 c0 -41 -4 -76 -10 -80 -5 -3
-36 8 -69 25 -33 16 -70 30 -81 30 -11 0 -48 -14 -81 -30 -33 -17 -64 -28 -69
-25 -6 4 -10 39 -10 80 l0 74 38 -7 c20 -4 75 -7 122 -7z m-208 -445 l86 -200
-259 0 -259 0 0 134 c0 141 7 175 43 215 38 40 74 50 193 51 l111 0 85 -200z
m774 174 c64 -47 69 -62 72 -225 l3 -149 -259 0 -260 0 86 201 86 201 122 -4
c105 -3 127 -6 150 -24z m-523 -5 c23 -12 44 -23 46 -25 5 -5 -82 -214 -89
-214 -7 0 -94 209 -89 214 5 4 82 45 87 46 1 0 22 -10 45 -21z"/>
<path d="M2355 3149 c-142 -24 -270 -92 -380 -203 -91 -92 -144 -176 -183
-291 l-27 -80 0 -370 c0 -395 1 -403 55 -547 46 -125 170 -278 285 -355 l55
-36 0 -93 0 -94 -99 0 c-54 0 -122 -5 -152 -10 -182 -35 -341 -191 -379 -374
-7 -34 -10 -135 -8 -265 3 -230 5 -235 72 -285 27 -21 34 -21 966 -21 932 0
939 0 966 21 67 50 69 56 72 279 2 116 -1 229 -7 262 -27 142 -127 276 -255
338 -87 43 -149 55 -277 55 l-99 0 0 94 0 93 55 36 c115 77 239 230 285 355
54 143 55 154 55 527 l0 350 -32 67 c-42 90 -100 150 -186 193 -38 19 -76 35
-83 35 -11 0 -14 28 -14 140 0 136 -1 142 -25 165 l-24 25 -293 -1 c-161 -1
-315 -5 -343 -10z m525 -284 c0 -131 1 -137 25 -160 15 -16 35 -25 56 -25 62
0 113 -23 164 -75 58 -57 75 -102 75 -194 l0 -61 -67 45 c-37 25 -76 45 -85
45 -10 0 -51 -11 -93 -25 -203 -68 -460 -71 -730 -8 -172 40 -161 40 -235 -11
l-65 -46 -3 63 c-11 220 112 428 311 526 45 22 105 44 132 49 28 6 155 10 283
11 l232 1 0 -135z m-655 -623 c269 -56 506 -55 722 3 l86 23 84 -56 83 -55 0
-131 c0 -162 -17 -245 -71 -356 -32 -64 -60 -102 -118 -161 -310 -309 -824
-226 -1021 166 -53 104 -70 189 -70 351 l0 131 83 56 c49 34 90 55 102 53 11
-2 65 -13 120 -24z m527 -1255 l-49 -49 -61 31 c-34 17 -71 31 -82 31 -11 0
-48 -14 -82 -31 l-61 -31 -48 48 -49 48 0 79 0 79 28 -6 c145 -30 305 -32 402
-3 l45 13 3 -80 3 -80 -49 -49z m-443 -374 c68 -170 125 -314 128 -320 4 -10
-75 -13 -377 -13 l-382 0 4 203 c3 196 4 203 30 253 38 73 69 106 129 139 71
38 95 43 230 44 l115 1 123 -307z m948 274 c66 -34 115 -83 150 -150 27 -51
28 -57 31 -254 l4 -203 -382 0 c-302 0 -381 3 -377 13 3 6 60 151 128 321
l124 308 135 -4 c123 -4 140 -7 187 -31z m-628 -92 l69 -34 -66 -166 c-36 -91
-69 -165 -72 -165 -3 0 -36 74 -72 165 l-66 166 66 34 c37 19 68 34 70 35 1 0
34 -16 71 -35z"/>
</g>
</svg>
