<?xml version="1.0" standalone="no"?>
<!DOCTYPE svg PUBLIC "-//W3C//DTD SVG 20010904//EN"
 "http://www.w3.org/TR/2001/REC-SVG-20010904/DTD/svg10.dtd">
<svg version="1.0" xmlns="http://www.w3.org/2000/svg"
 width="512.000000pt" height="512.000000pt" viewBox="0 0 512.000000 512.000000"
 preserveAspectRatio="xMidYMid meet">

<g transform="translate(0.000000,512.000000) scale(0.100000,-0.100000)"
fill="#000000" stroke="none">
<path d="M2458 4499 c-37 -5 -102 -22 -145 -38 -108 -40 -2170 -1027 -2211
-1058 -50 -38 -90 -99 -98 -150 -16 -110 49 -193 222 -280 l114 -58 0 -466 0
-466 -48 -31 c-104 -67 -154 -196 -122 -312 16 -59 67 -129 115 -158 24 -15
45 -31 45 -36 0 -7 -243 -786 -257 -822 -4 -12 57 -14 367 -14 332 0 371 2
366 15 -16 42 -256 812 -256 822 0 6 13 16 29 22 96 41 164 200 132 316 -17
66 -66 133 -121 167 l-50 31 0 413 c0 228 3 414 7 414 4 0 74 -32 155 -72
l148 -71 0 -621 c0 -615 0 -621 21 -656 33 -54 254 -268 354 -342 300 -223
648 -364 1025 -415 152 -20 458 -20 610 0 382 52 720 189 1025 414 109 81 334
304 358 355 15 33 17 89 17 647 l0 612 365 179 c201 98 383 193 405 210 56 44
94 127 87 185 -9 62 -39 116 -86 156 -60 52 -2141 1065 -2236 1089 -90 23
-246 32 -337 19z m301 -204 c30 -9 446 -208 925 -442 479 -234 953 -466 1052
-514 100 -49 185 -96 188 -105 4 -10 -1 -25 -11 -37 -18 -20 -723 -372 -769
-383 -13 -3 -28 -12 -34 -19 -6 -7 -308 -157 -673 -333 -491 -238 -677 -323
-721 -331 -84 -15 -210 -13 -285 4 -42 10 -307 132 -765 352 -386 185 -744
356 -796 381 -52 25 -90 47 -85 48 6 2 413 51 905 109 963 113 933 108 954
169 13 34 -1 73 -36 99 l-27 20 -1038 -122 c-571 -67 -1049 -122 -1063 -123
-34 -2 -275 116 -284 139 -5 13 0 23 17 36 25 19 2016 980 2122 1024 96 40
170 53 275 48 52 -2 119 -12 149 -20z m-1112 -2001 c329 -157 619 -294 645
-304 25 -11 84 -27 129 -36 106 -21 294 -14 384 14 33 10 328 150 656 310 327
161 598 292 602 292 4 0 7 -247 7 -549 l0 -549 -71 -76 c-220 -235 -538 -426
-868 -521 -346 -99 -762 -104 -1101 -13 -200 53 -434 158 -596 266 -111 75
-284 222 -346 295 l-48 56 0 550 c0 303 2 551 5 551 2 0 273 -129 602 -286z"/>
</g>
</svg>
