<?xml version="1.0" standalone="no"?>
<!DOCTYPE svg PUBLIC "-//W3C//DTD SVG 20010904//EN"
 "http://www.w3.org/TR/2001/REC-SVG-20010904/DTD/svg10.dtd">
<svg version="1.0" xmlns="http://www.w3.org/2000/svg"
 width="512.000000pt" height="512.000000pt" viewBox="0 0 512.000000 512.000000"
 preserveAspectRatio="xMidYMid meet">

<g transform="translate(0.000000,512.000000) scale(0.100000,-0.100000)"
fill="#000000" stroke="none">
<path d="M2265 4535 l-25 -24 0 -376 0 -375 -55 0 c-67 0 -105 -29 -105 -80 0
-19 9 -40 25 -55 l24 -25 431 0 431 0 24 25 c16 15 25 36 25 55 0 51 -38 80
-105 80 l-55 0 0 80 0 80 376 0 c267 0 389 -4 418 -12 55 -16 138 -99 154
-154 17 -60 17 -2808 0 -2868 -16 -55 -99 -138 -154 -154 -60 -17 -2168 -17
-2228 0 -55 16 -138 99 -154 154 -9 31 -12 323 -12 1218 l0 1176 1095 0 1096
0 24 25 c16 15 25 36 25 55 0 19 -9 40 -25 55 l-24 25 -1096 0 -1095 0 0 136
c0 170 9 204 75 269 68 69 94 75 324 75 190 0 192 0 216 25 33 32 33 78 0 111
l-26 26 -222 -4 -223 -3 -76 -37 c-91 -45 -147 -103 -191 -196 l-32 -67 0
-1456 0 -1455 37 -76 c45 -91 103 -147 196 -191 l67 -32 1135 0 1135 0 67 32
c93 44 151 100 196 191 l37 76 0 1456 0 1456 -37 76 c-45 91 -103 147 -196
191 l-67 32 -407 3 -408 3 0 215 c0 215 0 215 -25 239 l-24 25 -271 0 -271 0
-24 -25z m455 -455 l0 -320 -160 0 -160 0 0 320 0 320 160 0 160 0 0 -320z"/>
<path d="M2440 3022 c-234 -61 -392 -301 -352 -534 15 -86 45 -155 96 -221 32
-41 34 -48 19 -53 -170 -55 -312 -204 -368 -384 -25 -83 -32 -300 -12 -370 20
-66 64 -123 120 -153 40 -21 54 -22 353 -25 l312 -3 25 23 c42 37 45 72 9 108
l-30 30 -291 0 -290 0 -28 24 -28 24 1 129 c0 154 15 214 75 297 50 70 133
127 221 151 53 14 101 16 313 13 158 -3 263 -9 287 -16 64 -22 156 -91 198
-150 58 -80 73 -142 74 -295 l1 -129 -28 -24 c-15 -13 -39 -24 -53 -24 -14 0
-36 -11 -49 -25 -33 -33 -33 -78 1 -112 23 -23 31 -25 74 -20 102 12 178 77
207 177 20 69 13 286 -13 370 -54 179 -197 328 -367 384 -16 5 -13 12 22 59
147 194 129 447 -43 621 -124 126 -287 172 -456 128z m246 -171 c64 -29 137
-101 166 -165 32 -72 31 -181 -1 -253 -29 -66 -110 -143 -176 -169 -66 -25
-164 -25 -230 0 -66 26 -147 103 -176 169 -32 72 -33 182 -1 252 74 161 260
235 418 166z"/>
<path d="M1999 1091 c-16 -16 -29 -39 -29 -51 0 -12 13 -35 29 -51 l29 -29
531 0 530 0 25 23 c41 36 43 71 8 107 l-30 30 -532 0 -532 0 -29 -29z"/>
</g>
</svg>
